<?xml version="1.0" encoding="UTF-8"?>
<svg width="20px" height="17px" viewBox="0 0 20 17" version="1.1" xmlns="http://www.w3.org/2000/svg" xmlns:xlink="http://www.w3.org/1999/xlink">
    <!-- Generator: Sketch 57.1 (83088) - https://sketch.com -->
    <title>twitter-logo-2429</title>
    <desc>Created with Sketch.</desc>
    <g id="Page-1" stroke="none" stroke-width="1" fill="none" fill-rule="evenodd">
        <g id="twitter-logo-2429" fill="#FFFFFF" fill-rule="nonzero">
            <path d="M6.31693104,16.1758418 C13.8083599,16.1758418 17.9059037,9.96908644 17.9059037,4.58686912 C17.9059037,4.41062356 17.9059037,4.23503975 17.8939923,4.06033827 C18.6911781,3.48373515 19.3791754,2.76992961 19.9259999,1.95200904 C19.1826363,2.28133898 18.3940532,2.49751 17.5865,2.59280172 C18.4368462,2.0836969 19.0732273,1.28320236 19.3771902,0.339990835 C18.577578,0.814464173 17.7029677,1.14886751 16.7908583,1.32864239 C15.2483236,-0.311610394 12.6681681,-0.390799575 11.0279153,1.15173509 C9.97000076,2.14656296 9.52133559,3.62887855 9.84956261,5.04347526 C6.57501277,4.87914117 3.5236926,3.33241543 1.45550942,0.787773669 C0.374433717,2.64882972 0.926552157,5.02979913 2.71658058,6.22491608 C2.06828809,6.20572539 1.43433348,6.03080332 0.867877165,5.71514951 C0.867877165,5.7319138 0.867877165,5.74933983 0.867877165,5.76676586 C0.868318331,7.70568759 2.2350486,9.37549846 4.13558894,9.7595329 C3.53604523,9.92298466 2.90672285,9.94702817 2.29637058,9.82945761 C2.82996008,11.4886805 4.3590392,12.625343 6.10164235,12.6579893 C4.65925222,13.7915637 2.87760594,14.4067687 1.04324039,14.4050041 C0.719204441,14.4043423 0.395609654,14.3847105 0.0737795276,14.3461085 C1.93637965,15.541446 4.10382504,16.1754006 6.31693104,16.1725331" id="Path"></path>
        </g>
    </g>
</svg>